<?xml version="1.0" encoding="UTF-8"?>
<svg width="25px" height="20px" viewBox="0 0 25 20" version="1.1" xmlns="http://www.w3.org/2000/svg" xmlns:xlink="http://www.w3.org/1999/xlink">
    <!-- Generator: Sketch 51.3 (57544) - http://www.bohemiancoding.com/sketch -->
    <title>Group 5</title>
    <desc>Created with Sketch.</desc>
    <defs></defs>
    <g id="Symbols" stroke="none" stroke-width="1" fill="none" fill-rule="evenodd">
        <g id="icon_download" fill="#FFFFFF">
            <g id="Group-5">
                <path d="M6.3815786,9.67742103 C6.3815786,9.96148683 6.49480124,10.2278446 6.70079828,10.4281664 L11.6363965,15.2369946 C11.7386377,15.336971 11.8590551,15.4155503 11.9904539,15.4679364 C12.1241248,15.5221672 12.2649904,15.5502049 12.4088854,15.5502049 C12.5524017,15.5502049 12.6932673,15.5225361 12.8231515,15.469781 C12.9579584,15.4159192 13.0783758,15.3380778 13.1798596,15.2384703 L18.1169725,10.4285353 C18.5418414,10.0149797 18.5418414,9.3417069 18.1173512,8.92741352 C17.6921036,8.51312015 17.0006503,8.51348906 16.5761601,8.9270446 L13.4990793,11.9252301 L13.4990793,1.06174206 C13.4990793,0.476271369 13.010215,0 12.4092641,0 C11.8083131,0 11.3194488,0.476271369 11.3194488,1.06174206 L11.3194488,11.9248611 L8.24236805,8.92630677 C7.81712048,8.51238231 7.12566718,8.51348906 6.70079828,8.92667569 C6.49517991,9.12736633 6.3815786,9.39446197 6.3815786,9.67742103 Z" id="Fill-1"></path>
                <polygon id="Fill-3" points="24.8172501 12.7228949 22.5611365 12.7228949 22.5611365 17.6798715 2.25611365 17.6798715 2.25611365 13.0329039 0 13.0329039 0 19.7911698 24.8172501 19.7911698"></polygon>
            </g>
        </g>
    </g>
</svg>