<?xml version="1.0" encoding="UTF-8"?>
<svg width="23px" height="23px" viewBox="0 0 23 23" version="1.1" xmlns="http://www.w3.org/2000/svg" xmlns:xlink="http://www.w3.org/1999/xlink">
    <!-- Generator: Sketch 51.3 (57544) - http://www.bohemiancoding.com/sketch -->
    <title>Header</title>
    <desc>Created with Sketch.</desc>
    <defs></defs>
    <g id="Symbols" stroke="none" stroke-width="1" fill="none" fill-rule="evenodd">
        <g id="Search" transform="translate(-4.000000, -4.000000)">
            <g id="Header">
                <g id="search">
                    <polygon id="Shape" transform="translate(15.500000, 15.500000) scale(1, -1) translate(-15.500000, -15.500000) " points="31 0 0 0 0 31 31 31"></polygon>
                    <path d="M20.4405946,12.5354182 L19.3964551,12.5354182 L19.0335049,12.8957178 C20.3156661,14.3908296 21.0954831,16.3290835 21.0954831,18.4527471 C21.0954831,23.1734606 17.268725,27 12.5477416,27 C7.82675815,27 4,23.1734606 4,18.4527471 C4,13.7320336 7.82675815,9.90549425 12.5477416,9.90549425 C14.6715266,9.90549425 16.6085763,10.6839517 18.1037736,11.9647247 L18.4667238,11.6044251 L18.4667238,10.5629752 L25.0392796,4 L27,5.96060831 L20.4405946,12.5354182 L20.4405946,12.5354182 Z M12.5477416,12.5354182 C9.27855918,12.5354182 6.63007433,15.1837516 6.63007433,18.4527471 C6.63007433,21.7204276 9.27855918,24.370076 12.5477416,24.370076 C15.8156089,24.370076 18.4654088,21.7204276 18.4654088,18.4527471 C18.4654088,15.1837516 15.8156089,12.5354182 12.5477416,12.5354182 L12.5477416,12.5354182 Z" id="Shape" fill="#991682" transform="translate(15.500000, 15.500000) scale(1, -1) translate(-15.500000, -15.500000) "></path>
                </g>
            </g>
        </g>
    </g>
</svg>